<mxfile host="Electron" agent="Mozilla/5.0 (X11; Linux x86_64) AppleWebKit/537.36 (KHTML, like Gecko) draw.io/28.0.6 Chrome/138.0.7204.100 Electron/37.2.3 Safari/537.36" version="28.0.6">
  <diagram name="Page-1" id="6MIIefBEKtgYK83bb0-C">
    <mxGraphModel dx="1295" dy="803" grid="1" gridSize="10" guides="1" tooltips="1" connect="1" arrows="1" fold="1" page="1" pageScale="1" pageWidth="850" pageHeight="1100" math="0" shadow="0">
      <root>
        <mxCell id="0" />
        <mxCell id="1" parent="0" />
        <mxCell id="_kW1wpaxtLHurLsQFBNa-1" value="&lt;div&gt;BATCH&amp;nbsp;&lt;/div&gt;&lt;div&gt;SOURCE&lt;/div&gt;&lt;div&gt;Kaggle dataset&amp;nbsp;&lt;/div&gt;&lt;div&gt;YouTube trending&lt;br&gt;CSV&amp;nbsp;&lt;/div&gt;" style="ellipse;whiteSpace=wrap;html=1;aspect=fixed;fillColor=light-dark(#FFFFFF,#FFE599);fontColor=light-dark(#000000,#000000);labelBorderColor=none;strokeColor=light-dark(#000000,#000000);" parent="1" vertex="1">
          <mxGeometry x="70" y="140" width="110" height="110" as="geometry" />
        </mxCell>
        <mxCell id="_kW1wpaxtLHurLsQFBNa-2" value="&lt;div&gt;REAL-TIME&lt;/div&gt;&lt;div&gt;SOURCE&lt;/div&gt;&lt;div&gt;YouTube API&lt;/div&gt;" style="ellipse;whiteSpace=wrap;html=1;aspect=fixed;fillColor=light-dark(#FFFFFF,#FFE599);fontColor=light-dark(#000000,#000000);strokeColor=light-dark(#000000,#000000);" parent="1" vertex="1">
          <mxGeometry x="70" y="300" width="110" height="110" as="geometry" />
        </mxCell>
        <mxCell id="_kW1wpaxtLHurLsQFBNa-3" value="" style="endArrow=none;html=1;rounded=0;" parent="1" edge="1">
          <mxGeometry width="50" height="50" relative="1" as="geometry">
            <mxPoint x="180" y="189.88" as="sourcePoint" />
            <mxPoint x="240" y="190" as="targetPoint" />
          </mxGeometry>
        </mxCell>
        <mxCell id="_kW1wpaxtLHurLsQFBNa-4" value="" style="endArrow=none;html=1;rounded=0;" parent="1" edge="1">
          <mxGeometry width="50" height="50" relative="1" as="geometry">
            <mxPoint x="180" y="359.88" as="sourcePoint" />
            <mxPoint x="240" y="360" as="targetPoint" />
          </mxGeometry>
        </mxCell>
        <mxCell id="_kW1wpaxtLHurLsQFBNa-5" value="" style="endArrow=none;html=1;rounded=0;" parent="1" edge="1">
          <mxGeometry width="50" height="50" relative="1" as="geometry">
            <mxPoint x="240" y="190" as="sourcePoint" />
            <mxPoint x="240" y="360" as="targetPoint" />
          </mxGeometry>
        </mxCell>
        <mxCell id="_kW1wpaxtLHurLsQFBNa-7" value="" style="endArrow=classic;html=1;rounded=0;" parent="1" edge="1">
          <mxGeometry width="50" height="50" relative="1" as="geometry">
            <mxPoint x="240" y="280" as="sourcePoint" />
            <mxPoint x="280" y="280" as="targetPoint" />
          </mxGeometry>
        </mxCell>
        <mxCell id="_kW1wpaxtLHurLsQFBNa-11" value="" style="endArrow=classic;html=1;rounded=0;entryX=0;entryY=0.5;entryDx=0;entryDy=0;" parent="1" target="_kW1wpaxtLHurLsQFBNa-13" edge="1">
          <mxGeometry width="50" height="50" relative="1" as="geometry">
            <mxPoint x="350" y="280" as="sourcePoint" />
            <mxPoint x="400" y="200" as="targetPoint" />
            <Array as="points">
              <mxPoint x="380" y="280" />
              <mxPoint x="380" y="230" />
            </Array>
          </mxGeometry>
        </mxCell>
        <mxCell id="_kW1wpaxtLHurLsQFBNa-12" value="" style="endArrow=classic;html=1;rounded=0;entryX=0;entryY=0.5;entryDx=0;entryDy=0;" parent="1" target="_kW1wpaxtLHurLsQFBNa-14" edge="1">
          <mxGeometry width="50" height="50" relative="1" as="geometry">
            <mxPoint x="380" y="280" as="sourcePoint" />
            <mxPoint x="400" y="350" as="targetPoint" />
            <Array as="points">
              <mxPoint x="380" y="330" />
            </Array>
          </mxGeometry>
        </mxCell>
        <mxCell id="_kW1wpaxtLHurLsQFBNa-13" value="&lt;span style=&quot;color: light-dark(rgb(0, 0, 0), rgb(0, 0, 0));&quot;&gt;PYTHON&lt;/span&gt;" style="rounded=0;whiteSpace=wrap;html=1;fillColor=light-dark(#FFFFFF,#97D077);strokeColor=light-dark(#000000,#000000);" parent="1" vertex="1">
          <mxGeometry x="400" y="190" width="200" height="80" as="geometry" />
        </mxCell>
        <mxCell id="_kW1wpaxtLHurLsQFBNa-14" value="&lt;span style=&quot;color: light-dark(rgb(0, 0, 0), rgb(0, 0, 0));&quot;&gt;KAFKA&lt;/span&gt;" style="rounded=0;whiteSpace=wrap;html=1;fillColor=light-dark(#000000,#97D077);strokeColor=light-dark(#000000,#010101);" parent="1" vertex="1">
          <mxGeometry x="400" y="300" width="70" height="60" as="geometry" />
        </mxCell>
        <mxCell id="_kW1wpaxtLHurLsQFBNa-15" value="" style="endArrow=classic;html=1;rounded=0;exitX=1;exitY=0.5;exitDx=0;exitDy=0;entryX=0.005;entryY=0.503;entryDx=0;entryDy=0;entryPerimeter=0;" parent="1" source="_kW1wpaxtLHurLsQFBNa-14" target="_kW1wpaxtLHurLsQFBNa-16" edge="1">
          <mxGeometry width="50" height="50" relative="1" as="geometry">
            <mxPoint x="400" y="350" as="sourcePoint" />
            <mxPoint x="500" y="350" as="targetPoint" />
          </mxGeometry>
        </mxCell>
        <mxCell id="_kW1wpaxtLHurLsQFBNa-16" value="&lt;span style=&quot;color: light-dark(rgb(0, 0, 0), rgb(0, 0, 0));&quot;&gt;SPARK STRUCTURED STREAMING&lt;/span&gt;" style="rounded=0;whiteSpace=wrap;html=1;fillColor=light-dark(#FFFFFF,#97D077);strokeColor=light-dark(#000000,#000000);" parent="1" vertex="1">
          <mxGeometry x="490" y="300" width="110" height="60" as="geometry" />
        </mxCell>
        <mxCell id="_kW1wpaxtLHurLsQFBNa-19" value="" style="endArrow=classic;html=1;rounded=0;exitX=1;exitY=0.5;exitDx=0;exitDy=0;" parent="1" source="_kW1wpaxtLHurLsQFBNa-13" edge="1">
          <mxGeometry width="50" height="50" relative="1" as="geometry">
            <mxPoint x="600" y="220" as="sourcePoint" />
            <mxPoint x="650" y="280" as="targetPoint" />
            <Array as="points">
              <mxPoint x="630" y="230" />
              <mxPoint x="630" y="280" />
            </Array>
          </mxGeometry>
        </mxCell>
        <mxCell id="_kW1wpaxtLHurLsQFBNa-20" value="" style="endArrow=none;html=1;rounded=0;exitX=1;exitY=0.5;exitDx=0;exitDy=0;" parent="1" source="_kW1wpaxtLHurLsQFBNa-16" edge="1">
          <mxGeometry width="50" height="50" relative="1" as="geometry">
            <mxPoint x="560" y="390" as="sourcePoint" />
            <mxPoint x="630" y="270" as="targetPoint" />
            <Array as="points">
              <mxPoint x="630" y="330" />
            </Array>
          </mxGeometry>
        </mxCell>
        <mxCell id="_kW1wpaxtLHurLsQFBNa-23" value="" style="endArrow=classic;html=1;rounded=0;" parent="1" edge="1">
          <mxGeometry width="50" height="50" relative="1" as="geometry">
            <mxPoint x="730" y="280" as="sourcePoint" />
            <mxPoint x="750" y="280" as="targetPoint" />
          </mxGeometry>
        </mxCell>
        <mxCell id="_kW1wpaxtLHurLsQFBNa-26" value="" style="endArrow=classic;html=1;rounded=0;entryX=0;entryY=0.5;entryDx=0;entryDy=0;" parent="1" edge="1">
          <mxGeometry width="50" height="50" relative="1" as="geometry">
            <mxPoint x="842" y="275" as="sourcePoint" />
            <mxPoint x="860" y="275" as="targetPoint" />
          </mxGeometry>
        </mxCell>
        <mxCell id="_kW1wpaxtLHurLsQFBNa-31" value="" style="endArrow=classic;html=1;rounded=0;" parent="1" edge="1">
          <mxGeometry width="50" height="50" relative="1" as="geometry">
            <mxPoint x="690" y="190" as="sourcePoint" />
            <mxPoint x="690" y="160" as="targetPoint" />
          </mxGeometry>
        </mxCell>
        <mxCell id="_kW1wpaxtLHurLsQFBNa-32" value="" style="endArrow=classic;html=1;rounded=0;entryX=0.5;entryY=0;entryDx=0;entryDy=0;" parent="1" target="_kW1wpaxtLHurLsQFBNa-49" edge="1">
          <mxGeometry width="50" height="50" relative="1" as="geometry">
            <mxPoint x="900" y="160" as="sourcePoint" />
            <mxPoint x="902.5" y="190" as="targetPoint" />
          </mxGeometry>
        </mxCell>
        <mxCell id="_kW1wpaxtLHurLsQFBNa-33" value="" style="endArrow=classic;startArrow=classic;html=1;rounded=0;" parent="1" edge="1">
          <mxGeometry width="50" height="50" relative="1" as="geometry">
            <mxPoint x="790" y="190" as="sourcePoint" />
            <mxPoint x="790" y="160" as="targetPoint" />
          </mxGeometry>
        </mxCell>
        <mxCell id="_kW1wpaxtLHurLsQFBNa-34" value="&lt;span style=&quot;color: light-dark(rgb(0, 0, 0), rgb(0, 0, 0));&quot;&gt;SPARK&lt;/span&gt;" style="rounded=0;whiteSpace=wrap;html=1;fillColor=light-dark(#FFFFFF,#5D8149);strokeColor=light-dark(#000000,#000000);" parent="1" vertex="1">
          <mxGeometry x="650" y="120" width="290" height="40" as="geometry" />
        </mxCell>
        <mxCell id="_kW1wpaxtLHurLsQFBNa-35" value="" style="endArrow=classic;html=1;rounded=0;exitX=1;exitY=0.5;exitDx=0;exitDy=0;" parent="1" source="_kW1wpaxtLHurLsQFBNa-49" edge="1">
          <mxGeometry width="50" height="50" relative="1" as="geometry">
            <mxPoint x="945" y="275" as="sourcePoint" />
            <mxPoint x="960" y="275" as="targetPoint" />
          </mxGeometry>
        </mxCell>
        <mxCell id="_kW1wpaxtLHurLsQFBNa-38" value="&lt;span style=&quot;color: light-dark(rgb(0, 0, 0), rgb(0, 0, 0));&quot;&gt;DOCKER&lt;/span&gt;" style="rounded=0;whiteSpace=wrap;html=1;strokeColor=light-dark(#000000,#000000);fillColor=light-dark(#FFFFFF,#FF6666);" parent="1" vertex="1">
          <mxGeometry x="280" y="380" width="780" height="40" as="geometry" />
        </mxCell>
        <mxCell id="_kW1wpaxtLHurLsQFBNa-39" value="&lt;span style=&quot;color: light-dark(rgb(0, 0, 0), rgb(0, 0, 0));&quot;&gt;AIRFLOW&lt;/span&gt;" style="rounded=0;whiteSpace=wrap;html=1;fillColor=light-dark(#FFFFFF,#FF9999);strokeColor=light-dark(#000000,#000000);" parent="1" vertex="1">
          <mxGeometry x="280" y="430" width="780" height="40" as="geometry" />
        </mxCell>
        <mxCell id="_kW1wpaxtLHurLsQFBNa-41" value="&lt;span style=&quot;color: light-dark(rgb(0, 0, 0), rgb(0, 0, 0));&quot;&gt;PYTHON&lt;/span&gt;" style="rounded=0;whiteSpace=wrap;html=1;fillColor=light-dark(#FFFFFF,#B9E0A5);rotation=0;strokeColor=light-dark(#000000,#000000);" parent="1" vertex="1">
          <mxGeometry x="280" y="190" width="80" height="170" as="geometry" />
        </mxCell>
        <mxCell id="_kW1wpaxtLHurLsQFBNa-47" value="&lt;div&gt;&lt;span style=&quot;color: light-dark(rgb(0, 0, 0), rgb(0, 0, 0));&quot;&gt;HDFS&lt;/span&gt;&lt;/div&gt;&lt;div&gt;&lt;span style=&quot;color: light-dark(rgb(0, 0, 0), rgb(0, 0, 0));&quot;&gt;Raw&lt;/span&gt;&lt;/div&gt;&lt;div&gt;&lt;span style=&quot;color: light-dark(transparent, rgb(0, 0, 0));&quot;&gt;zone&lt;/span&gt;&lt;/div&gt;" style="rounded=0;whiteSpace=wrap;html=1;fillColor=light-dark(#FFFFFF,#66B2FF);strokeColor=light-dark(#000000,#000000);" parent="1" vertex="1">
          <mxGeometry x="650" y="190" width="80" height="170" as="geometry" />
        </mxCell>
        <mxCell id="_kW1wpaxtLHurLsQFBNa-48" value="&lt;div&gt;&lt;span style=&quot;color: light-dark(rgb(0, 0, 0), rgb(0, 0, 0));&quot;&gt;HDFS&lt;/span&gt;&lt;/div&gt;&lt;div&gt;&lt;span style=&quot;color: light-dark(transparent, rgb(0, 0, 0));&quot;&gt;Tranformation&lt;/span&gt;&lt;/div&gt;&lt;div&gt;&lt;span style=&quot;color: light-dark(transparent, rgb(0, 0, 0));&quot;&gt;zone&lt;/span&gt;&lt;/div&gt;" style="rounded=0;whiteSpace=wrap;html=1;fillColor=light-dark(#FFFFFF,#007FFF);strokeColor=light-dark(#000000,#000000);" parent="1" vertex="1">
          <mxGeometry x="750" y="190" width="90" height="170" as="geometry" />
        </mxCell>
        <mxCell id="_kW1wpaxtLHurLsQFBNa-49" value="&lt;div&gt;&lt;span style=&quot;color: light-dark(rgb(0, 0, 0), rgb(0, 0, 0));&quot;&gt;DRUID/&lt;/span&gt;&lt;/div&gt;&lt;div&gt;&lt;span style=&quot;color: light-dark(transparent, rgb(0, 0, 0));&quot;&gt;MongoDB/&lt;/span&gt;&lt;/div&gt;&lt;div&gt;&lt;span style=&quot;color: light-dark(transparent, rgb(0, 0, 0));&quot;&gt;Elasticsearch&lt;/span&gt;&lt;/div&gt;&lt;div&gt;&lt;span style=&quot;color: light-dark(transparent, rgb(0, 0, 0));&quot;&gt;Curated&lt;/span&gt;&lt;/div&gt;&lt;div&gt;&lt;span style=&quot;color: light-dark(transparent, rgb(0, 0, 0));&quot;&gt;zone&lt;/span&gt;&lt;/div&gt;" style="rounded=0;whiteSpace=wrap;html=1;fillColor=light-dark(#FFFFFF,#004C99);strokeColor=light-dark(#000000,#000000);" parent="1" vertex="1">
          <mxGeometry x="860" y="190" width="80" height="170" as="geometry" />
        </mxCell>
        <mxCell id="_kW1wpaxtLHurLsQFBNa-50" value="&lt;div&gt;&lt;span style=&quot;color: light-dark(rgb(0, 0, 0), rgb(0, 0, 0));&quot;&gt;METABASE/&lt;/span&gt;&lt;/div&gt;&lt;div&gt;&lt;span style=&quot;color: light-dark(transparent, rgb(0, 0, 0));&quot;&gt;SUPERSET&lt;/span&gt;&lt;/div&gt;" style="rounded=0;whiteSpace=wrap;html=1;fillColor=light-dark(#FFFFFF,#CC99FF);strokeColor=light-dark(#000000,#000000);" parent="1" vertex="1">
          <mxGeometry x="960" y="190" width="110" height="170" as="geometry" />
        </mxCell>
      </root>
    </mxGraphModel>
  </diagram>
</mxfile>
